<svg width="227" height="64" viewBox="0 0 227 64" fill="none" xmlns="http://www.w3.org/2000/svg">
<path d="M3.168 46V20.8H9.288V40.6H20.52V46H3.168ZM27.2973 46V33.436L27.5493 35.2L17.3613 20.8H24.3093L32.0853 31.96L28.9173 31.852L35.9373 20.8H42.6693L32.9133 35.596L33.4533 33.148V46H27.2973ZM45.6016 46V20.8H51.7216V46H45.6016ZM48.4456 36.352V31.24H61.4776V36.352H48.4456ZM48.4456 26.2V20.8H62.9536V26.2H48.4456ZM67.8555 46V20.8H85.4235V26.02H73.7955V40.78H85.7835V46H67.8555ZM70.7355 35.668V30.7H83.8035V35.668H70.7355ZM92.4986 46.396C91.5146 46.396 90.7466 46.12 90.1946 45.568C89.6666 45.016 89.4026 44.224 89.4026 43.192C89.4026 42.232 89.6906 41.452 90.2666 40.852C90.8426 40.252 91.5866 39.952 92.4986 39.952C93.4826 39.952 94.2506 40.24 94.8026 40.816C95.3546 41.368 95.6306 42.16 95.6306 43.192C95.6306 44.128 95.3426 44.896 94.7666 45.496C94.1906 46.096 93.4346 46.396 92.4986 46.396ZM123.284 46.36C121.388 46.36 119.636 46.048 118.028 45.424C116.444 44.776 115.064 43.876 113.888 42.724C112.712 41.548 111.8 40.168 111.152 38.584C110.528 36.976 110.216 35.212 110.216 33.292C110.216 31.42 110.552 29.692 111.224 28.108C111.896 26.524 112.82 25.156 113.996 24.004C115.196 22.828 116.6 21.916 118.208 21.268C119.84 20.62 121.616 20.296 123.536 20.296C124.736 20.296 125.912 20.452 127.064 20.764C128.216 21.076 129.284 21.544 130.268 22.168C131.276 22.768 132.14 23.488 132.86 24.328L129.116 28.612C128.612 28.084 128.072 27.628 127.496 27.244C126.944 26.836 126.332 26.524 125.66 26.308C124.988 26.092 124.268 25.984 123.5 25.984C122.54 25.984 121.628 26.164 120.764 26.524C119.924 26.86 119.18 27.352 118.532 28C117.908 28.624 117.416 29.392 117.056 30.304C116.696 31.216 116.516 32.236 116.516 33.364C116.516 34.468 116.696 35.476 117.056 36.388C117.416 37.276 117.92 38.044 118.568 38.692C119.216 39.34 119.996 39.832 120.908 40.168C121.844 40.504 122.876 40.672 124.004 40.672C124.772 40.672 125.504 40.564 126.2 40.348C126.896 40.132 127.532 39.844 128.108 39.484C128.708 39.1 129.236 38.668 129.692 38.188L132.644 42.868C132.044 43.54 131.24 44.14 130.232 44.668C129.248 45.196 128.144 45.616 126.92 45.928C125.72 46.216 124.508 46.36 123.284 46.36ZM148.316 46.36C146.396 46.36 144.644 46.036 143.06 45.388C141.476 44.74 140.096 43.828 138.92 42.652C137.744 41.476 136.832 40.096 136.184 38.512C135.536 36.928 135.212 35.188 135.212 33.292C135.212 31.396 135.536 29.656 136.184 28.072C136.832 26.488 137.744 25.108 138.92 23.932C140.096 22.756 141.476 21.844 143.06 21.196C144.644 20.548 146.384 20.224 148.28 20.224C150.176 20.224 151.916 20.548 153.5 21.196C155.084 21.844 156.464 22.756 157.64 23.932C158.816 25.108 159.716 26.488 160.34 28.072C160.988 29.656 161.312 31.396 161.312 33.292C161.312 35.164 160.988 36.904 160.34 38.512C159.716 40.096 158.816 41.476 157.64 42.652C156.464 43.828 155.084 44.74 153.5 45.388C151.916 46.036 150.188 46.36 148.316 46.36ZM148.28 40.6C149.264 40.6 150.164 40.42 150.98 40.06C151.82 39.7 152.54 39.196 153.14 38.548C153.764 37.876 154.244 37.096 154.58 36.208C154.916 35.32 155.084 34.348 155.084 33.292C155.084 32.236 154.916 31.264 154.58 30.376C154.244 29.488 153.764 28.72 153.14 28.072C152.54 27.4 151.82 26.884 150.98 26.524C150.164 26.164 149.264 25.984 148.28 25.984C147.296 25.984 146.384 26.164 145.544 26.524C144.728 26.884 144.008 27.4 143.384 28.072C142.76 28.72 142.28 29.488 141.944 30.376C141.632 31.264 141.476 32.236 141.476 33.292C141.476 34.348 141.632 35.332 141.944 36.244C142.28 37.132 142.76 37.9 143.384 38.548C144.008 39.196 144.728 39.7 145.544 40.06C146.384 40.42 147.296 40.6 148.28 40.6Z" fill="black"/>
<path d="M2.98 61V54H3.95L8.23 59.73L8.07 59.82C8.04333 59.6533 8.02 59.4733 8 59.28C7.98 59.08 7.96 58.87 7.94 58.65C7.92667 58.4233 7.91333 58.1867 7.9 57.94C7.89333 57.6867 7.88667 57.4233 7.88 57.15C7.87333 56.8767 7.87 56.5933 7.87 56.3V54H8.95V61H7.96L3.75 55.48L3.86 55.34C3.89333 55.7467 3.92 56.0933 3.94 56.38C3.96667 56.66 3.98667 56.9 4 57.1C4.02 57.2933 4.03333 57.4533 4.04 57.58C4.04667 57.7 4.05 57.8 4.05 57.88C4.05667 57.96 4.06 58.03 4.06 58.09V61H2.98ZM13.0997 61.1C12.5597 61.1 12.0797 60.9867 11.6597 60.76C11.2464 60.5267 10.9197 60.21 10.6797 59.81C10.4464 59.41 10.3297 58.95 10.3297 58.43C10.3297 58.0167 10.3964 57.64 10.5297 57.3C10.663 56.96 10.8464 56.6667 11.0797 56.42C11.3197 56.1667 11.603 55.9733 11.9297 55.84C12.263 55.7 12.623 55.63 13.0097 55.63C13.3497 55.63 13.6664 55.6967 13.9597 55.83C14.253 55.9567 14.5064 56.1333 14.7197 56.36C14.9397 56.5867 15.1064 56.8567 15.2197 57.17C15.3397 57.4767 15.3964 57.8133 15.3897 58.18L15.3797 58.62H11.0897L10.8597 57.8H14.4897L14.3397 57.97V57.73C14.3197 57.51 14.2464 57.3133 14.1197 57.14C13.993 56.9667 13.833 56.83 13.6397 56.73C13.4464 56.63 13.2364 56.58 13.0097 56.58C12.6497 56.58 12.3464 56.65 12.0997 56.79C11.853 56.9233 11.6664 57.1233 11.5397 57.39C11.413 57.65 11.3497 57.9733 11.3497 58.36C11.3497 58.7267 11.4264 59.0467 11.5797 59.32C11.733 59.5867 11.9497 59.7933 12.2297 59.94C12.5097 60.0867 12.833 60.16 13.1997 60.16C13.4597 60.16 13.6997 60.1167 13.9197 60.03C14.1464 59.9433 14.3897 59.7867 14.6497 59.56L15.1697 60.29C15.0097 60.45 14.813 60.59 14.5797 60.71C14.353 60.83 14.1097 60.9267 13.8497 61C13.5964 61.0667 13.3464 61.1 13.0997 61.1ZM17.7014 61L15.9114 55.75L16.9514 55.74L18.2314 59.67L18.0014 59.65L19.3914 56.58H20.0114L21.4114 59.66L21.1414 59.68L22.4314 55.75H23.4714L21.7014 61H20.9914L19.5314 57.66L19.7614 57.69L18.4014 61H17.7014ZM26.1106 61.1C25.6706 61.1 25.274 61.0233 24.9206 60.87C24.5673 60.7167 24.274 60.49 24.0406 60.19L24.7406 59.59C24.9406 59.8233 25.1573 59.9933 25.3906 60.1C25.6306 60.2 25.9006 60.25 26.2006 60.25C26.3206 60.25 26.4306 60.2367 26.5306 60.21C26.6373 60.1767 26.7273 60.13 26.8006 60.07C26.8806 60.01 26.9406 59.94 26.9806 59.86C27.0206 59.7733 27.0406 59.68 27.0406 59.58C27.0406 59.4067 26.9773 59.2667 26.8506 59.16C26.784 59.1133 26.6773 59.0633 26.5306 59.01C26.3906 58.95 26.2073 58.89 25.9806 58.83C25.594 58.73 25.2773 58.6167 25.0306 58.49C24.784 58.3633 24.594 58.22 24.4606 58.06C24.3606 57.9333 24.2873 57.7967 24.2406 57.65C24.194 57.4967 24.1706 57.33 24.1706 57.15C24.1706 56.93 24.2173 56.73 24.3106 56.55C24.4106 56.3633 24.544 56.2033 24.7106 56.07C24.884 55.93 25.084 55.8233 25.3106 55.75C25.544 55.6767 25.7906 55.64 26.0506 55.64C26.2973 55.64 26.5406 55.6733 26.7806 55.74C27.0273 55.8067 27.254 55.9033 27.4606 56.03C27.6673 56.1567 27.8406 56.3067 27.9806 56.48L27.3906 57.13C27.264 57.0033 27.124 56.8933 26.9706 56.8C26.824 56.7 26.674 56.6233 26.5206 56.57C26.3673 56.5167 26.2273 56.49 26.1006 56.49C25.9606 56.49 25.834 56.5033 25.7206 56.53C25.6073 56.5567 25.5106 56.5967 25.4306 56.65C25.3573 56.7033 25.3006 56.77 25.2606 56.85C25.2206 56.93 25.2006 57.02 25.2006 57.12C25.2073 57.2067 25.2273 57.29 25.2606 57.37C25.3006 57.4433 25.354 57.5067 25.4206 57.56C25.494 57.6133 25.604 57.67 25.7506 57.73C25.8973 57.79 26.084 57.8467 26.3106 57.9C26.644 57.9867 26.9173 58.0833 27.1306 58.19C27.3506 58.29 27.524 58.4067 27.6506 58.54C27.784 58.6667 27.8773 58.8133 27.9306 58.98C27.984 59.1467 28.0106 59.3333 28.0106 59.54C28.0106 59.84 27.924 60.11 27.7506 60.35C27.584 60.5833 27.3573 60.7667 27.0706 60.9C26.784 61.0333 26.464 61.1 26.1106 61.1ZM32.5185 61V55.16C32.5185 54.86 32.5852 54.5933 32.7185 54.36C32.8518 54.1267 33.0352 53.9433 33.2685 53.81C33.5018 53.6767 33.7718 53.61 34.0785 53.61C34.2918 53.61 34.4918 53.65 34.6785 53.73C34.8652 53.81 35.0152 53.9167 35.1285 54.05L34.7785 54.84C34.6918 54.76 34.5952 54.6967 34.4885 54.65C34.3885 54.5967 34.2918 54.57 34.1985 54.57C34.0585 54.57 33.9385 54.5933 33.8385 54.64C33.7452 54.68 33.6752 54.7467 33.6285 54.84C33.5818 54.9267 33.5585 55.0333 33.5585 55.16V61H33.0385C32.9518 61 32.8652 61 32.7785 61C32.6918 61 32.6052 61 32.5185 61ZM31.6785 56.79V55.84H34.7985V56.79H31.6785ZM38.039 61.1C37.5257 61.1 37.0657 60.9833 36.659 60.75C36.259 60.51 35.9423 60.1867 35.709 59.78C35.4757 59.3667 35.359 58.8967 35.359 58.37C35.359 57.8433 35.4757 57.3767 35.709 56.97C35.9423 56.5567 36.259 56.2333 36.659 56C37.0657 55.76 37.5257 55.64 38.039 55.64C38.5457 55.64 38.999 55.76 39.399 56C39.8057 56.2333 40.1257 56.5567 40.359 56.97C40.5923 57.3767 40.709 57.8433 40.709 58.37C40.709 58.8967 40.5923 59.3667 40.359 59.78C40.1257 60.1867 39.8057 60.51 39.399 60.75C38.999 60.9833 38.5457 61.1 38.039 61.1ZM38.039 60.16C38.3523 60.16 38.6323 60.0833 38.879 59.93C39.1257 59.77 39.319 59.5567 39.459 59.29C39.599 59.0167 39.6657 58.71 39.659 58.37C39.6657 58.0233 39.599 57.7167 39.459 57.45C39.319 57.1767 39.1257 56.9633 38.879 56.81C38.6323 56.6567 38.3523 56.58 38.039 56.58C37.7257 56.58 37.4423 56.66 37.189 56.82C36.9423 56.9733 36.749 57.1867 36.609 57.46C36.469 57.7267 36.4023 58.03 36.409 58.37C36.4023 58.71 36.469 59.0167 36.609 59.29C36.749 59.5567 36.9423 59.77 37.189 59.93C37.4423 60.0833 37.7257 60.16 38.039 60.16ZM41.8313 61V55.75H42.8713V57.4L42.7713 57C42.8447 56.7467 42.968 56.5167 43.1413 56.31C43.3213 56.1033 43.5247 55.94 43.7513 55.82C43.9847 55.7 44.2247 55.64 44.4713 55.64C44.5847 55.64 44.6913 55.65 44.7913 55.67C44.898 55.69 44.9813 55.7133 45.0413 55.74L44.7713 56.86C44.6913 56.8267 44.6013 56.8 44.5013 56.78C44.408 56.7533 44.3147 56.74 44.2213 56.74C44.0413 56.74 43.868 56.7767 43.7013 56.85C43.5413 56.9167 43.398 57.0133 43.2713 57.14C43.1513 57.26 43.0547 57.4033 42.9813 57.57C42.908 57.73 42.8713 57.9067 42.8713 58.1V61H41.8313ZM48.9273 61V54H50.0073V59.96H53.2873V61H48.9273ZM54.8236 61V55.75H55.8536V61H54.8236ZM55.3236 54.59C55.1036 54.59 54.9336 54.5333 54.8136 54.42C54.6936 54.3067 54.6336 54.1467 54.6336 53.94C54.6336 53.7467 54.6936 53.59 54.8136 53.47C54.9403 53.35 55.1103 53.29 55.3236 53.29C55.5436 53.29 55.7136 53.3467 55.8336 53.46C55.9536 53.5733 56.0136 53.7333 56.0136 53.94C56.0136 54.1333 55.9503 54.29 55.8236 54.41C55.7036 54.53 55.5369 54.59 55.3236 54.59ZM58.0068 61V55.16C58.0068 54.86 58.0735 54.5933 58.2068 54.36C58.3401 54.1267 58.5235 53.9433 58.7568 53.81C58.9901 53.6767 59.2601 53.61 59.5668 53.61C59.7801 53.61 59.9801 53.65 60.1668 53.73C60.3535 53.81 60.5035 53.9167 60.6168 54.05L60.2668 54.84C60.1801 54.76 60.0835 54.6967 59.9768 54.65C59.8768 54.5967 59.7801 54.57 59.6868 54.57C59.5468 54.57 59.4268 54.5933 59.3268 54.64C59.2335 54.68 59.1635 54.7467 59.1168 54.84C59.0701 54.9267 59.0468 55.0333 59.0468 55.16V61H58.5268C58.4401 61 58.3535 61 58.2668 61C58.1801 61 58.0935 61 58.0068 61ZM57.1668 56.79V55.84H60.2868V56.79H57.1668ZM63.6173 61.1C63.0773 61.1 62.5973 60.9867 62.1773 60.76C61.7639 60.5267 61.4373 60.21 61.1973 59.81C60.9639 59.41 60.8473 58.95 60.8473 58.43C60.8473 58.0167 60.9139 57.64 61.0473 57.3C61.1806 56.96 61.3639 56.6667 61.5973 56.42C61.8373 56.1667 62.1206 55.9733 62.4473 55.84C62.7806 55.7 63.1406 55.63 63.5273 55.63C63.8673 55.63 64.1839 55.6967 64.4773 55.83C64.7706 55.9567 65.0239 56.1333 65.2373 56.36C65.4573 56.5867 65.6239 56.8567 65.7373 57.17C65.8573 57.4767 65.9139 57.8133 65.9073 58.18L65.8973 58.62H61.6073L61.3773 57.8H65.0073L64.8573 57.97V57.73C64.8373 57.51 64.7639 57.3133 64.6373 57.14C64.5106 56.9667 64.3506 56.83 64.1573 56.73C63.9639 56.63 63.7539 56.58 63.5273 56.58C63.1673 56.58 62.8639 56.65 62.6173 56.79C62.3706 56.9233 62.1839 57.1233 62.0573 57.39C61.9306 57.65 61.8673 57.9733 61.8673 58.36C61.8673 58.7267 61.9439 59.0467 62.0973 59.32C62.2506 59.5867 62.4673 59.7933 62.7473 59.94C63.0273 60.0867 63.3506 60.16 63.7173 60.16C63.9773 60.16 64.2173 60.1167 64.4373 60.03C64.6639 59.9433 64.9073 59.7867 65.1673 59.56L65.6873 60.29C65.5273 60.45 65.3306 60.59 65.0973 60.71C64.8706 60.83 64.6273 60.9267 64.3673 61C64.1139 61.0667 63.8639 61.1 63.6173 61.1ZM68.7766 61.1C68.3366 61.1 67.94 61.0233 67.5866 60.87C67.2333 60.7167 66.94 60.49 66.7066 60.19L67.4066 59.59C67.6066 59.8233 67.8233 59.9933 68.0566 60.1C68.2966 60.2 68.5666 60.25 68.8666 60.25C68.9866 60.25 69.0966 60.2367 69.1966 60.21C69.3033 60.1767 69.3933 60.13 69.4666 60.07C69.5466 60.01 69.6066 59.94 69.6466 59.86C69.6866 59.7733 69.7066 59.68 69.7066 59.58C69.7066 59.4067 69.6433 59.2667 69.5166 59.16C69.45 59.1133 69.3433 59.0633 69.1966 59.01C69.0566 58.95 68.8733 58.89 68.6466 58.83C68.26 58.73 67.9433 58.6167 67.6966 58.49C67.45 58.3633 67.26 58.22 67.1266 58.06C67.0266 57.9333 66.9533 57.7967 66.9066 57.65C66.86 57.4967 66.8366 57.33 66.8366 57.15C66.8366 56.93 66.8833 56.73 66.9766 56.55C67.0766 56.3633 67.21 56.2033 67.3766 56.07C67.55 55.93 67.75 55.8233 67.9766 55.75C68.21 55.6767 68.4566 55.64 68.7166 55.64C68.9633 55.64 69.2066 55.6733 69.4466 55.74C69.6933 55.8067 69.92 55.9033 70.1266 56.03C70.3333 56.1567 70.5066 56.3067 70.6466 56.48L70.0566 57.13C69.93 57.0033 69.79 56.8933 69.6366 56.8C69.49 56.7 69.34 56.6233 69.1866 56.57C69.0333 56.5167 68.8933 56.49 68.7666 56.49C68.6266 56.49 68.5 56.5033 68.3866 56.53C68.2733 56.5567 68.1766 56.5967 68.0966 56.65C68.0233 56.7033 67.9666 56.77 67.9266 56.85C67.8866 56.93 67.8666 57.02 67.8666 57.12C67.8733 57.2067 67.8933 57.29 67.9266 57.37C67.9666 57.4433 68.02 57.5067 68.0866 57.56C68.16 57.6133 68.27 57.67 68.4166 57.73C68.5633 57.79 68.75 57.8467 68.9766 57.9C69.31 57.9867 69.5833 58.0833 69.7966 58.19C70.0166 58.29 70.19 58.4067 70.3166 58.54C70.45 58.6667 70.5433 58.8133 70.5966 58.98C70.65 59.1467 70.6766 59.3333 70.6766 59.54C70.6766 59.84 70.59 60.11 70.4166 60.35C70.25 60.5833 70.0233 60.7667 69.7366 60.9C69.45 61.0333 69.13 61.1 68.7766 61.1ZM72.4618 61V54.41H73.4918V61H72.4618ZM71.3718 56.75V55.75H74.7118V56.75H71.3718ZM76.5297 63.3L77.5897 60.85L77.5997 61.67L74.9797 55.75H76.1797L77.8197 59.61C77.853 59.6767 77.893 59.78 77.9397 59.92C77.9864 60.0533 78.0264 60.1867 78.0597 60.32L77.7997 60.38C77.853 60.24 77.903 60.1 77.9497 59.96C78.003 59.82 78.053 59.68 78.0997 59.54L79.4697 55.75H80.6897L78.5297 61L77.6397 63.3H76.5297ZM81.4802 61V53.6H82.5102V61H81.4802ZM86.3223 61.1C85.7823 61.1 85.3023 60.9867 84.8823 60.76C84.469 60.5267 84.1423 60.21 83.9023 59.81C83.669 59.41 83.5523 58.95 83.5523 58.43C83.5523 58.0167 83.619 57.64 83.7523 57.3C83.8857 56.96 84.069 56.6667 84.3023 56.42C84.5423 56.1667 84.8257 55.9733 85.1523 55.84C85.4857 55.7 85.8457 55.63 86.2323 55.63C86.5723 55.63 86.889 55.6967 87.1823 55.83C87.4757 55.9567 87.729 56.1333 87.9423 56.36C88.1623 56.5867 88.329 56.8567 88.4423 57.17C88.5623 57.4767 88.619 57.8133 88.6123 58.18L88.6023 58.62H84.3123L84.0823 57.8H87.7123L87.5623 57.97V57.73C87.5423 57.51 87.469 57.3133 87.3423 57.14C87.2157 56.9667 87.0557 56.83 86.8623 56.73C86.669 56.63 86.459 56.58 86.2323 56.58C85.8723 56.58 85.569 56.65 85.3223 56.79C85.0757 56.9233 84.889 57.1233 84.7623 57.39C84.6357 57.65 84.5723 57.9733 84.5723 58.36C84.5723 58.7267 84.649 59.0467 84.8023 59.32C84.9557 59.5867 85.1723 59.7933 85.4523 59.94C85.7323 60.0867 86.0557 60.16 86.4223 60.16C86.6823 60.16 86.9223 60.1167 87.1423 60.03C87.369 59.9433 87.6123 59.7867 87.8723 59.56L88.3923 60.29C88.2323 60.45 88.0357 60.59 87.8023 60.71C87.5757 60.83 87.3323 60.9267 87.0723 61C86.819 61.0667 86.569 61.1 86.3223 61.1Z" fill="black"/>
<path d="M151 3.66663L136 15.3333L121 3.66663M112 15.3333H160C163.314 15.3333 166 17.4226 166 20V45.6666C166 48.244 163.314 50.3333 160 50.3333H112C108.686 50.3333 106 48.244 106 45.6666V20C106 17.4226 108.686 15.3333 112 15.3333Z" stroke="#1E1E1E" stroke-width="4" stroke-linecap="round" stroke-linejoin="round"/>
</svg>
