<svg width="144" height="33" viewBox="0 0 144 33" fill="none" xmlns="http://www.w3.org/2000/svg">
<path d="M0 27.5716V0.234319H2.53672L15.8441 21.5574H14.5134L27.696 0.234319H30.2328V27.5716H27.2802V4.56923H27.9871L15.8441 24.0959H14.3886L2.16245 4.56923H2.95258V27.5716H0Z" fill="black"/>
<path d="M39.7175 27.5716V0.234319H42.7949V27.5716H39.7175Z" fill="black"/>
<path d="M64.9915 27.8059C62.8013 27.8059 60.7636 27.4675 58.8784 26.7905C57.0209 26.0876 55.3991 25.1112 54.0129 23.8615C52.6545 22.5858 51.5871 21.1148 50.8108 19.4485C50.0623 17.7562 49.688 15.9077 49.688 13.903C49.688 11.8982 50.0623 10.0627 50.8108 8.39645C51.5871 6.70414 52.6545 5.23314 54.0129 3.98343C55.3991 2.70769 57.0209 1.73136 58.8784 1.05444C60.7359 0.351479 62.7736 0 64.9915 0C67.1817 0 69.2055 0.351479 71.063 1.05444C72.9205 1.73136 74.5285 2.69467 75.887 3.94438C77.2731 5.19408 78.3405 6.66509 79.0891 8.3574C79.8653 10.0497 80.2534 11.8982 80.2534 13.903C80.2534 15.9077 79.8653 17.7562 79.0891 19.4485C78.3405 21.1408 77.2731 22.6118 75.887 23.8615C74.5285 25.1112 72.9205 26.0876 71.063 26.7905C69.2055 27.4675 67.1817 27.8059 64.9915 27.8059ZM74.5146 33C73.6275 33 72.768 32.8959 71.9363 32.6876C71.1046 32.4793 70.259 32.1408 69.3996 31.6722C68.5679 31.2296 67.7085 30.6438 66.8213 29.9148C65.9341 29.1858 64.9638 28.3006 63.9103 27.2592L67.2787 26.4781C68.1382 27.4414 68.9699 28.2355 69.7739 28.8604C70.6056 29.4852 71.4096 29.9408 72.1858 30.2272C72.9898 30.5396 73.78 30.6959 74.5562 30.6959C76.7187 30.6959 78.5623 29.8627 80.0871 28.1964L81.5842 29.8757C79.7544 31.9586 77.3979 33 74.5146 33ZM64.9915 25.2284C66.7381 25.2284 68.3461 24.955 69.8155 24.4083C71.3125 23.8355 72.6017 23.0284 73.6829 21.987C74.7919 20.9456 75.6513 19.7479 76.2612 18.3941C76.8711 17.0142 77.1761 15.5172 77.1761 13.903C77.1761 12.2627 76.8711 10.7657 76.2612 9.41183C75.6513 8.03195 74.7919 6.83432 73.6829 5.81893C72.6017 4.77752 71.3125 3.98343 69.8155 3.43669C68.3461 2.8639 66.7381 2.57751 64.9915 2.57751C63.2449 2.57751 61.6231 2.8639 60.126 3.43669C58.6289 3.98343 57.3259 4.77752 56.217 5.81893C55.1357 6.83432 54.2763 8.03195 53.6386 9.41183C53.0287 10.7657 52.7238 12.2627 52.7238 13.903C52.7238 15.5172 53.0287 17.0142 53.6386 18.3941C54.2763 19.7479 55.1357 20.9456 56.217 21.987C57.3259 23.0284 58.6289 23.8355 60.126 24.4083C61.6231 24.955 63.2449 25.2284 64.9915 25.2284Z" fill="black"/>
<path d="M82.0874 27.5716L95.3948 0.234319H98.4306L111.738 27.5716H108.494L96.2681 1.91361H97.5157L85.2895 27.5716H82.0874ZM87.3272 20.2686L88.2421 17.9254H105.167L106.082 20.2686H87.3272Z" fill="black"/>
<path d="M116.553 27.5716V0.234319H128.405C131.51 0.234319 134.227 0.820118 136.556 1.99172C138.913 3.13728 140.742 4.73846 142.045 6.79527C143.348 8.85207 144 11.2213 144 13.903C144 16.5846 143.348 18.9538 142.045 21.0107C140.742 23.0675 138.913 24.6817 136.556 25.8533C134.227 26.9988 131.51 27.5716 128.405 27.5716H116.553ZM119.631 25.0722H128.239C130.817 25.0722 133.049 24.6035 134.934 23.6663C136.847 22.703 138.33 21.3882 139.384 19.7219C140.438 18.0296 140.964 16.0899 140.964 13.903C140.964 11.6899 140.438 9.7503 139.384 8.08402C138.33 6.41775 136.847 5.11598 134.934 4.1787C133.049 3.21538 130.817 2.73373 128.239 2.73373H119.631V25.0722Z" fill="black"/>
</svg>
